<svg width="100%" height="100%" viewBox="0 0 169 172" fill="none" xmlns="http://www.w3.org/2000/svg">
<path d="M134.39 67.4361L119.509 73.7529C110.84 77.4325 106.561 87.184 110.072 95.4554L122.411 124.525C125.922 132.796 135.909 136.492 144.578 132.812L152.249 129.556C165.213 124.053 171.51 109.671 166.272 97.33L144.678 46.4588C128.625 8.63979 82.1932 -11.3691 42.7712 8.30112C6.81146 26.2425 -8.2356 72.6718 6.63816 107.712L27.2754 156.33C32.5139 168.672 47.2339 174.132 60.198 168.629L67.8689 165.373C76.5373 161.694 80.817 151.942 77.306 143.671L64.9668 114.601C61.4558 106.33 51.4682 102.634 42.7998 106.314L27.9183 112.631L22.8387 100.664C11.098 73.0044 23.3918 39.3831 52.1834 26.2264L52.184 26.2261C59.2255 22.9968 66.8138 21.1386 74.4981 20.7613C82.1824 20.384 89.8054 21.4954 96.9148 24.028C104.024 26.5606 110.475 30.4627 115.885 35.5016C121.296 40.5404 125.557 46.6137 128.416 53.3614L128.416 53.3617L134.39 67.4361Z" fill="#E02FEF" stroke="black"/>
</svg>
