<svg width="100%" height="100%" viewBox="0 0 174 174" fill="none" xmlns="http://www.w3.org/2000/svg">
<g clip-path="url(#clip0_10_18)">
<path d="M69.3692 134.399L69.456 134.891L69.9484 134.805L76.1035 133.719L76.5959 133.633L76.5091 133.14L74.3385 120.83C73.7858 117.696 74.5009 114.47 76.3263 111.863C78.1518 109.256 80.9381 107.481 84.0724 106.929L96.3824 104.758C99.5167 104.205 102.742 104.92 105.349 106.746C107.956 108.571 109.731 111.358 110.284 114.492L112.455 126.802L112.541 127.294L113.034 127.208L119.189 126.122L119.681 126.035L119.594 125.543L117.424 113.233C116.871 110.099 117.586 106.873 119.412 104.266C121.237 101.659 124.023 99.8841 127.158 99.3314L139.468 97.1608C142.602 96.6082 145.827 97.3233 148.434 99.1487C151.041 100.974 152.817 103.761 153.369 106.895L155.54 119.205L155.627 119.697L156.119 119.61L161.782 118.612L164.864 136.092L30.4378 159.795L27.3555 142.315L33.0182 141.316L33.5106 141.23L33.4238 140.737L31.2532 128.427C30.7005 125.293 31.4156 122.067 33.241 119.46C35.0665 116.853 37.8528 115.078 40.9871 114.526L53.2971 112.355C56.4314 111.802 59.6568 112.517 62.2638 114.343C64.8709 116.168 66.646 118.955 67.1986 122.089L69.3692 134.399ZM27.3487 106.284L17.1442 48.4114C16.5916 45.2772 17.3066 42.0518 19.1321 39.4447C20.9575 36.8377 23.7439 35.0626 26.8781 34.5099L125.359 17.1451C128.493 16.5925 131.718 17.3075 134.326 19.133C136.933 20.9585 138.708 23.7448 139.26 26.8791L149.465 84.7532C145.654 83.4744 141.588 83.14 137.616 83.7812L127.935 28.876L127.848 28.3836L127.356 28.4704L28.8751 45.8352L28.3827 45.9221L28.4695 46.4145L38.1512 101.322C34.0722 102.121 30.4175 103.83 27.3487 106.284ZM82.1337 93.0544L75.9692 58.0937L102.359 71.4644L82.1337 93.0544Z" fill="#00BDDD" stroke="black"/>
</g>
<defs>
<clipPath id="clip0_10_18">
<rect width="150" height="150" fill="white" transform="translate(0 26.0469) rotate(-10)"/>
</clipPath>
</defs>
</svg>
