<svg width="250" height="250" viewBox="0 0 250 250" fill="none" xmlns="http://www.w3.org/2000/svg">
<path d="M41.6673 208.331C35.9382 208.331 31.0319 206.289 26.9486 202.206C22.8653 198.122 20.8271 193.22 20.834 187.497V62.4974C20.834 56.7682 22.8757 51.862 26.959 47.7787C31.0423 43.6953 35.9451 41.6571 41.6673 41.6641H208.334C214.063 41.6641 218.969 43.7057 223.053 47.7891C227.136 51.8724 229.174 56.7752 229.167 62.4974V187.497C229.167 193.227 227.126 198.133 223.042 202.216C218.959 206.299 214.056 208.338 208.334 208.331H41.6673ZM208.334 83.3307L130.469 132.029C129.601 132.549 128.688 132.942 127.73 133.206C126.772 133.47 125.862 133.598 125.001 133.591C124.133 133.591 123.219 133.463 122.261 133.206C121.303 132.949 120.393 132.556 119.532 132.029L41.6673 83.3307V187.497H208.334V83.3307ZM125.001 114.581L208.334 62.4974H41.6673L125.001 114.581ZM41.6673 85.9349V70.5703V70.8307V70.7057V85.9349Z" fill="#E02FEF"/>
</svg>
