<svg width="100%" height="100%" viewBox="0 0 250 250" fill="none" xmlns="http://www.w3.org/2000/svg">
<path d="M125.01 20.8359C67.4583 20.8359 20.8438 67.4505 20.8438 125.003C20.8312 146.869 27.7042 168.184 40.4876 185.924C53.2711 203.664 71.316 216.929 92.0625 223.836C97.2708 224.742 99.2292 221.617 99.2292 218.878C99.2292 216.409 99.0938 208.211 99.0938 199.482C72.9271 204.305 66.1563 193.107 64.0729 187.242C62.8958 184.242 57.8229 175.003 53.3958 172.523C49.75 170.576 44.5417 165.753 53.2604 165.628C61.4688 165.492 67.3229 173.18 69.2813 176.305C78.6563 192.055 93.625 187.628 99.6146 184.898C100.531 178.128 103.26 173.576 106.26 170.971C83.0833 168.367 58.8646 159.378 58.8646 119.534C58.8646 108.201 62.8958 98.8359 69.5417 91.5338C68.5 88.9297 64.8542 78.2526 70.5833 63.9297C70.5833 63.9297 79.3021 61.2005 99.2292 74.6172C107.709 72.2637 116.47 71.0791 125.271 71.0963C134.125 71.0963 142.979 72.263 151.313 74.6068C171.24 61.0651 179.958 63.9401 179.958 63.9401C185.687 78.263 182.042 88.9401 181 91.5443C187.635 98.8359 191.677 108.076 191.677 119.534C191.677 159.513 167.333 168.367 144.146 170.971C147.927 174.221 151.188 180.471 151.188 190.242C151.188 204.169 151.052 215.367 151.052 218.888C151.052 221.617 153.01 224.867 158.219 223.826C178.894 216.842 196.86 203.552 209.587 185.825C222.314 168.097 229.162 146.825 229.167 125.003C229.167 67.4505 182.552 20.8359 125 20.8359H125.01Z" fill="#00BDDD"/>
</svg>
