<svg width="100%" height="100%" viewBox="0 0 234 250" fill="none" xmlns="http://www.w3.org/2000/svg">
<path d="M109 31.25H67.3333C38.5685 31.25 15.25 54.5685 15.25 83.3333V166.667C15.25 195.431 38.5685 218.75 67.3333 218.75H150.667C179.431 218.75 202.75 195.431 202.75 166.667V83.3333C202.75 54.5685 179.431 31.25 150.667 31.25H109Z" stroke="#00BDDD" stroke-width="15" stroke-linecap="round" stroke-linejoin="round"/>
<path d="M109.001 83.3359C132.013 83.3359 150.667 101.991 150.667 125.003C150.667 148.014 132.013 166.669 109.001 166.669C85.9888 166.669 67.334 148.014 67.334 125.003C67.334 101.991 85.9888 83.3359 109.001 83.3359Z" stroke="#00BDDD" stroke-width="15" stroke-linecap="round" stroke-linejoin="round"/>
<path d="M161.084 88.5391C169.713 88.5391 176.709 81.5435 176.709 72.9141C176.709 64.2846 169.713 57.2891 161.084 57.2891C152.455 57.2891 145.459 64.2846 145.459 72.9141C145.459 81.5435 152.455 88.5391 161.084 88.5391Z" fill="#00BDDD"/>
</svg>
