<svg width="100%" height="100%" viewBox="0 0 250 250" fill="none" xmlns="http://www.w3.org/2000/svg">
<path d="M234.375 124.317C234.375 123.78 234.375 123.17 234.351 122.462C234.326 120.484 234.277 118.263 234.229 115.895C234.033 109.083 233.691 102.296 233.154 95.8994C232.422 87.0859 231.348 79.7373 229.883 74.2197C228.337 68.4617 225.307 63.2102 221.095 58.9901C216.884 54.7701 211.639 51.7294 205.884 50.1719C198.975 48.3164 185.449 47.1689 166.406 46.4609C157.349 46.1191 147.656 45.8994 137.964 45.7773C134.57 45.7285 131.421 45.7041 128.589 45.6797H121.411C118.579 45.7041 115.43 45.7285 112.036 45.7773C102.344 45.8994 92.6514 46.1191 83.5937 46.4609C64.5508 47.1934 51.001 48.3408 44.1162 50.1719C38.3594 51.7256 33.112 54.765 28.9 58.9856C24.688 63.2062 21.6592 68.4598 20.1172 74.2197C18.6279 79.7373 17.5781 87.0859 16.8457 95.8994C16.3086 102.296 15.9668 109.083 15.7715 115.895C15.6982 118.263 15.6738 120.484 15.6494 122.462C15.6494 123.17 15.625 123.78 15.625 124.317V125.685C15.625 126.222 15.625 126.832 15.6494 127.54C15.6738 129.518 15.7227 131.739 15.7715 134.107C15.9668 140.919 16.3086 147.706 16.8457 154.103C17.5781 162.916 18.6523 170.265 20.1172 175.782C23.2422 187.477 32.4219 196.705 44.1162 199.83C51.001 201.686 64.5508 202.833 83.5937 203.541C92.6514 203.883 102.344 204.103 112.036 204.225C115.43 204.273 118.579 204.298 121.411 204.322H128.589C131.421 204.298 134.57 204.273 137.964 204.225C147.656 204.103 157.349 203.883 166.406 203.541C185.449 202.809 198.999 201.661 205.884 199.83C217.578 196.705 226.758 187.501 229.883 175.782C231.372 170.265 232.422 162.916 233.154 154.103C233.691 147.706 234.033 140.919 234.229 134.107C234.302 131.739 234.326 129.518 234.351 127.54C234.351 126.832 234.375 126.222 234.375 125.685V124.317ZM216.797 125.587C216.797 126.1 216.797 126.661 216.772 127.32C216.748 129.225 216.699 131.324 216.65 133.595C216.479 140.089 216.138 146.583 215.625 152.613C214.966 160.475 214.038 166.92 212.891 171.241C211.377 176.881 206.934 181.349 201.318 182.838C196.191 184.205 183.276 185.304 165.723 185.963C156.836 186.305 147.266 186.524 137.72 186.646C134.375 186.695 131.274 186.72 128.491 186.72H121.509L112.28 186.646C102.734 186.524 93.1885 186.305 84.2773 185.963C66.7236 185.279 53.7842 184.205 48.6816 182.838C43.0664 181.324 38.623 176.881 37.1094 171.241C35.9619 166.92 35.0342 160.475 34.375 152.613C33.8623 146.583 33.5449 140.089 33.3496 133.595C33.2764 131.324 33.252 129.2 33.2275 127.32C33.2275 126.661 33.2031 126.075 33.2031 125.587V124.415C33.2031 123.902 33.2031 123.341 33.2275 122.682C33.252 120.777 33.3008 118.678 33.3496 116.407C33.5205 109.913 33.8623 103.419 34.375 97.3887C35.0342 89.5273 35.9619 83.082 37.1094 78.7607C38.623 73.1211 43.0664 68.6533 48.6816 67.1641C53.8086 65.7969 66.7236 64.6982 84.2773 64.0391C93.1641 63.6973 102.734 63.4775 112.28 63.3555C115.625 63.3066 118.726 63.2822 121.509 63.2822H128.491L137.72 63.3555C147.266 63.4775 156.812 63.6973 165.723 64.0391C183.276 64.7227 196.216 65.7969 201.318 67.1641C206.934 68.6777 211.377 73.1211 212.891 78.7607C214.038 83.082 214.966 89.5273 215.625 97.3887C216.138 103.419 216.455 109.913 216.65 116.407C216.724 118.678 216.748 120.802 216.772 122.682C216.772 123.341 216.797 123.927 216.797 124.415V125.587ZM103.271 157.716L159.912 124.757L103.271 92.2861V157.716Z" fill="#E02FEF"/>
</svg>
