<svg width="100%" height="100%" viewBox="0 0 239 240" fill="none" xmlns="http://www.w3.org/2000/svg">
<path fill-rule="evenodd" clip-rule="evenodd" d="M29.793 44.875L171.336 32.4916L173.333 55.3211L164.201 56.12L163.003 42.4223L39.7237 53.2079L48.9114 158.223L146.562 149.68L147.361 158.812L40.5785 168.154L29.793 44.875ZM171.963 92.2477C175.596 91.9299 178.953 90.1819 181.297 87.3884C183.642 84.5948 184.78 80.9845 184.462 77.3516C184.144 73.7188 182.396 70.361 179.603 68.0169C176.809 65.6728 173.199 64.5345 169.566 64.8523C165.933 65.1702 162.575 66.9181 160.231 69.7117C157.887 72.5052 156.749 76.1156 157.067 79.7484C157.385 83.3813 159.132 86.7391 161.926 89.0831C164.72 91.4272 168.33 92.5655 171.963 92.2477ZM182.039 100.614C187.97 100.095 192.897 102.351 196.33 106.2C199.54 109.807 201.172 114.472 201.831 118.854C202.495 123.351 202.275 127.933 201.185 132.345C200.163 136.438 198.207 140.749 194.883 143.879L198.815 188.817C198.969 190.537 198.469 192.252 197.416 193.621C196.363 194.99 194.832 195.913 193.13 196.205C191.428 196.497 189.678 196.138 188.228 195.198C186.778 194.259 185.736 192.808 185.307 191.135L176.322 156.278L174.962 156.397L171.411 192.484C171.241 194.187 170.443 195.766 169.171 196.912C167.899 198.057 166.245 198.687 164.534 198.678C162.822 198.669 161.175 198.022 159.915 196.863C158.655 195.704 157.873 194.117 157.722 192.412L152.023 127.27C151.231 128.741 150.453 130.218 149.687 131.703L149.38 132.295L149.301 132.45L149.282 132.493C148.753 133.534 147.967 134.424 146.999 135.078C146.031 135.732 144.911 136.128 143.747 136.23L120.918 138.227C119.102 138.386 117.296 137.817 115.9 136.645C114.503 135.473 113.629 133.794 113.47 131.977C113.311 130.161 113.88 128.356 115.052 126.959C116.224 125.562 117.903 124.688 119.72 124.529L138.791 122.861C139.751 121.047 141.017 118.691 142.355 116.319C143.749 113.846 145.295 111.222 146.697 109.149C147.377 108.137 148.144 107.076 148.932 106.193C149.317 105.759 149.856 105.192 150.529 104.673C151.714 103.738 153.142 103.162 154.644 103.015L182.039 100.614Z" fill="#E02FEF"/>
</svg>
