<svg width="100%" height="100%" viewBox="0 0 237 260" fill="none" xmlns="http://www.w3.org/2000/svg">
<g clip-path="url(#clip0_124_2)">
<path d="M48.0152 73.3697L48.8398 109.051C48.8399 109.051 48.8399 109.052 48.8399 109.053C48.8685 111.043 48.0221 112.962 46.5301 114.257C45.0382 115.553 42.9977 116.121 41.0358 115.775L26.9671 113.294C25.0039 112.948 23.3171 111.767 22.3224 109.988C21.3258 108.205 21.1843 106.16 21.9298 104.316L21.9298 104.316L21.932 104.31L34.9121 71.0592L34.9301 71.0131L34.9388 70.9642L40.5048 39.3976L40.5666 39.0474L40.256 38.8742C36.5207 36.7904 34.461 32.5396 35.2224 28.2213C36.0649 23.4435 40.1922 19.8932 45.0467 19.7988L45.0484 19.7988L136.075 17.7173C136.076 17.7173 136.077 17.7173 136.077 17.7173C137.421 17.6951 138.764 17.9318 140.019 18.4124C140.02 18.4126 140.02 18.4128 140.021 18.413L224.846 51.5021L224.848 51.5027C229.378 53.2516 232.042 57.9995 231.199 62.7773C230.357 67.5551 226.229 71.1054 221.375 71.1997L221.373 71.1998L186.458 72.0244L186.049 72.0341L185.978 72.4375L181.551 97.5413C176.118 128.352 146.744 148.92 115.933 143.488C85.1218 138.055 64.5536 108.68 69.9864 77.8694L74.4129 52.7656L74.4841 52.3619L74.1022 52.213L53.7434 44.2713L53.1752 44.0497L53.0693 44.6503L48.0226 73.2713L48.014 73.3201L48.0152 73.3697ZM63.5523 153.239L63.5531 153.239C68.2099 152.589 72.7063 155.017 75.3322 159.034L75.3325 159.034L100.695 197.731C103.103 201.406 108.136 202.294 111.656 199.664L148.723 171.975L148.724 171.975C152.565 169.098 157.621 168.355 161.774 170.558L161.775 170.559C188.546 184.688 204.384 214.852 198.849 246.242C197.58 253.443 190.711 258.216 183.552 256.953L13.5844 226.984C6.42629 225.721 1.61055 218.844 2.87272 211.686C8.40765 180.296 33.6074 157.368 63.5523 153.239Z" fill="#00BDDD" stroke="black"/>
</g>
<defs>
<clipPath id="clip0_124_2">
<rect width="200" height="228.571" fill="white" transform="translate(39.6914) rotate(10)"/>
</clipPath>
</defs>
</svg>
