<svg width="100%" height="100%" viewBox="0 0 134 120" fill="none" xmlns="http://www.w3.org/2000/svg">
<path d="M77.7305 83.889L77.7309 83.8888C84.2998 80.8226 88.8447 75.8386 91.3478 68.9615C93.8509 62.0843 93.5729 55.3449 90.5117 48.7736L90.5116 48.7733C87.4454 42.2043 82.4614 37.6594 75.5842 35.1563C68.707 32.6532 61.9676 32.9312 55.3964 35.9924L55.396 35.9925C48.8271 39.0587 44.2821 44.0427 41.779 50.9199C39.276 57.7971 39.5539 64.5365 42.6151 71.1077L42.6153 71.1081C45.6815 77.677 50.6655 82.222 57.5427 84.7251C64.4198 87.2281 71.1592 86.9502 77.7305 83.889ZM30.4957 1.83546L30.4965 1.8351C33.2625 0.542391 36.0535 0.415858 38.8995 1.45173L55.9197 7.64657L56.1251 7.72134L56.3195 7.62131L70.0543 0.553114L102.063 12.2033L108.041 26.4464L108.126 26.648L108.331 26.7227L125.351 32.9176C128.197 33.9535 130.256 35.8451 131.547 38.615C132.837 41.3797 132.962 44.1701 131.926 47.0164L108.326 111.855C107.29 114.701 105.4 116.761 102.634 118.053C99.8658 119.341 97.0736 119.466 94.2274 118.43L7.77565 86.9638C4.92936 85.9278 2.87205 84.0385 1.58284 81.2737C0.291225 78.5039 0.165378 75.711 1.20126 72.8649L24.8006 8.02613C25.8365 5.18009 27.7274 3.12345 30.4957 1.83546Z" fill="#00BDDD" stroke="black"/>
</svg>
