<svg width="100%" height="100%" viewBox="0 0 220 232" fill="none" xmlns="http://www.w3.org/2000/svg">
<g clip-path="url(#clip0_9_5)">
<path d="M95.7622 28.1901L164.699 40.3455C190.688 44.9281 208.082 69.7687 203.499 95.7583L191.344 164.695C189.141 177.188 182.065 188.295 171.673 195.571C161.281 202.848 148.425 205.698 135.931 203.495L66.9945 191.34C41.0049 186.757 23.6114 161.917 28.194 135.927L40.3494 66.9906C42.5523 54.4971 49.6281 43.3905 60.02 36.114C70.4119 28.8375 83.2688 25.9872 95.7622 28.1901ZM91.4004 43.3293C83.4342 41.9247 75.2362 43.7421 68.61 48.3818C61.9838 53.0215 57.4721 60.1035 56.0675 68.0697L43.3333 140.289C40.4057 156.892 51.4703 172.694 68.0736 175.622L140.293 188.356C148.259 189.761 156.457 187.943 163.083 183.304C169.709 178.664 174.221 171.582 175.626 163.616L188.36 91.3964C191.288 74.7931 180.223 58.9911 163.62 56.0635L91.4004 43.3293ZM168.251 70.5884C170.841 71.0451 173.144 72.5121 174.652 74.6665C176.161 76.8209 176.752 79.4864 176.295 82.0765C175.838 84.6666 174.371 86.9692 172.217 88.4777C170.063 89.9863 167.397 90.5772 164.807 90.1205C162.217 89.6638 159.914 88.1968 158.406 86.0424C156.897 83.888 156.306 81.2225 156.763 78.6324C157.22 76.0423 158.687 73.7397 160.841 72.2312C162.996 70.7226 165.661 70.1317 168.251 70.5884ZM122.995 75.3014C133.747 77.1973 143.306 83.2869 149.568 92.2305C155.831 101.174 158.284 112.239 156.388 122.991C154.492 133.743 148.402 143.302 139.459 149.564C130.515 155.827 119.45 158.28 108.698 156.384C97.9459 154.488 88.3872 148.398 82.1249 139.455C75.8625 130.511 73.4095 119.446 75.3054 108.694C77.2013 97.942 83.2908 88.3833 92.2344 82.1209C101.178 75.8586 112.243 73.4055 122.995 75.3014ZM120.275 90.7301C113.614 89.5557 106.76 91.0752 101.22 94.9543C95.6805 98.8334 91.9084 104.754 90.734 111.415C89.5596 118.075 91.0791 124.929 94.9582 130.469C98.8374 136.009 104.758 139.781 111.419 140.955C118.079 142.13 124.933 140.61 130.473 136.731C136.013 132.852 139.785 126.931 140.959 120.271C142.134 113.61 140.614 106.756 136.735 101.216C132.856 95.6765 126.935 91.9045 120.275 90.7301Z" fill="#E02FEF" stroke="black"/>
</g>
<defs>
<clipPath id="clip0_9_5">
<rect width="200" height="200" fill="white" transform="translate(34.7305) rotate(10)"/>
</clipPath>
</defs>
</svg>
