<svg width="100%" height="100%" viewBox="0 0 215 215" fill="none" xmlns="http://www.w3.org/2000/svg">
<g clip-path="url(#clip0_5_7)">
<path d="M89.5401 81.2132L89.4107 81.6961L89.8936 81.8255L96.4966 83.5948C97.4193 83.842 98.2059 84.4456 98.6835 85.2729C99.1611 86.1001 99.2905 87.0832 99.0433 88.0058C98.7961 88.9284 98.1925 89.7151 97.3653 90.1927C96.538 90.6703 95.555 90.7997 94.6323 90.5525L88.0293 88.7832L87.5464 88.6538L87.4169 89.1368L85.6477 95.7398C85.4005 96.6624 84.7968 97.4491 83.9696 97.9267C83.1424 98.4043 82.1593 98.5337 81.2367 98.2865C80.314 98.0392 79.5274 97.4356 79.0498 96.6084C78.5722 95.7812 78.4428 94.7981 78.69 93.8755L80.4593 87.2725L80.5887 86.7895L80.1057 86.6601L73.5027 84.8908C72.5801 84.6436 71.7934 84.04 71.3158 83.2128C70.8382 82.3855 70.7088 81.4025 70.956 80.4798C71.2032 79.5572 71.8068 78.7705 72.6341 78.2929C73.4613 77.8153 74.4444 77.6859 75.367 77.9331L81.97 79.7024L82.453 79.8318L82.5824 79.3489L84.3517 72.7458C84.5989 71.8232 85.2025 71.0366 86.0297 70.559C86.8569 70.0814 87.84 69.9519 88.7627 70.1992C89.6853 70.4464 90.4719 71.05 90.9495 71.8772C91.4271 72.7044 91.5566 73.6875 91.3093 74.6102L89.5401 81.2132ZM168.043 173.782L168.042 173.783C165.242 176.133 161.917 177.773 158.349 178.565C154.782 179.356 151.076 179.277 147.545 178.332C141.737 176.761 136.785 172.96 133.766 167.756L133.651 167.54L115.102 130.183L115.002 129.98L114.784 129.922L89.1904 123.064L88.9722 123.006L88.7841 123.131L54.1109 146.188L53.9076 146.273L53.878 146.286L53.8502 146.302C48.6369 149.324 42.4373 150.153 36.613 148.608C33.4072 147.746 30.4288 146.194 27.887 144.058C25.3449 141.923 23.3011 139.257 21.8993 136.247C20.4975 133.238 19.7716 129.958 19.7726 126.638C19.7736 123.318 20.5014 120.039 21.9051 117.03L21.9236 116.99L21.9349 116.948L21.9349 116.948L21.9349 116.948L21.935 116.948L21.935 116.948L21.935 116.948L21.935 116.948L21.935 116.947L21.935 116.947L21.9351 116.947L21.9351 116.947L21.9351 116.947L21.9351 116.947L21.9351 116.947L21.9352 116.947L21.9352 116.947L21.9352 116.947L21.9352 116.947L21.9352 116.947L21.9353 116.947L21.9353 116.946L21.9353 116.946L21.9354 116.946L21.9354 116.946L21.9354 116.946L21.9354 116.946L21.9355 116.946L21.9355 116.946L21.9355 116.946L21.9355 116.946L21.9355 116.946L21.9355 116.946L21.9356 116.945L21.9356 116.945L21.9356 116.945L21.9356 116.945L21.9356 116.945L21.9356 116.945L21.9357 116.945L21.9357 116.945L21.9357 116.945L21.9357 116.945L21.9357 116.945L21.9358 116.945L21.9358 116.945L21.9358 116.945L21.9358 116.945L21.9358 116.944L21.9358 116.944L21.9359 116.944L21.9359 116.944L21.9359 116.944L21.9359 116.944L21.9359 116.944L21.936 116.944L21.936 116.944L21.936 116.944L21.936 116.944L21.9361 116.944L21.9361 116.944L21.9361 116.943L21.9361 116.943L21.9361 116.943L21.9362 116.943L21.9362 116.943L21.9362 116.943L21.9362 116.943L21.9363 116.943L21.9363 116.943L21.9363 116.943L21.9363 116.943L21.9363 116.943L21.9364 116.942L21.9364 116.942L21.9364 116.942L21.9364 116.942L21.9365 116.942L21.9365 116.942L21.9365 116.942L21.9365 116.942L21.9366 116.942L21.9366 116.942L21.9366 116.942L21.9366 116.941L21.9367 116.941L21.9367 116.941L21.9367 116.941L21.9367 116.941L21.9368 116.941L21.9368 116.941L21.9368 116.941L21.9369 116.941L21.9369 116.941L21.9369 116.94L21.9369 116.94L21.937 116.94L21.937 116.94L21.937 116.94L21.937 116.94L21.9371 116.94L21.9371 116.94L21.9371 116.94L21.9372 116.939L21.9372 116.939L21.9372 116.939L21.9372 116.939L21.9373 116.939L21.9373 116.939L21.9373 116.939L21.9374 116.939L21.9374 116.939L21.9374 116.939L21.9375 116.938L21.9375 116.938L21.9375 116.938L21.9375 116.938L21.9376 116.938L21.9376 116.938L21.9376 116.938L21.9377 116.938L21.9377 116.937L21.9377 116.937L21.9378 116.937L21.9378 116.937L21.9378 116.937L21.9379 116.937L21.9379 116.937L21.9379 116.937L21.938 116.937L21.938 116.936L21.938 116.936L21.9381 116.936L21.9381 116.936L21.9381 116.936L21.9382 116.936L21.9382 116.936L21.9382 116.936L21.9383 116.935L21.9383 116.935L21.9383 116.935L21.9384 116.935L21.9384 116.935L21.9384 116.935L21.9385 116.935L21.9385 116.935L21.9385 116.934L21.9386 116.934L21.9386 116.934L21.9386 116.934L21.9387 116.934L21.9387 116.934L21.9387 116.934L21.9388 116.933L21.9388 116.933L21.9388 116.933L21.9389 116.933L21.9389 116.933L21.939 116.933L21.939 116.933L21.939 116.933L21.9391 116.932L21.9391 116.932L21.9391 116.932L21.9392 116.932L21.9392 116.932L21.9392 116.932L21.9393 116.932L21.9393 116.931L21.9394 116.931L21.9394 116.931L21.9394 116.931L21.9395 116.931L21.9395 116.931L21.9395 116.931L21.9396 116.93L21.9396 116.93L21.9397 116.93L21.9397 116.93L21.9397 116.93L21.9398 116.93L21.9398 116.93L21.9398 116.929L21.9399 116.929L21.9399 116.929L21.94 116.929L21.94 116.929L21.94 116.929L21.9401 116.929L21.9401 116.928L21.9402 116.928L21.9402 116.928L21.9402 116.928L21.9403 116.928L47.6029 64.3284L47.6029 64.3284L47.6068 64.3201C51.4836 55.9901 58.1719 49.2927 66.4967 45.4045C74.8213 41.5164 84.2499 40.6863 93.1259 43.06C93.126 43.06 93.1261 43.06 93.1261 43.06L151.305 58.6489C160.154 61.0322 167.888 66.4409 173.163 73.935C178.43 81.4168 180.913 90.5049 180.183 99.6244L180.161 99.7059L180.148 99.7525L180.145 99.8007L176.09 158.24L176.083 158.266L176.072 158.309L176.068 158.353C175.817 161.328 174.979 164.223 173.601 166.872C172.224 169.52 170.334 171.869 168.043 173.782ZM91.2616 50.0176L91.2612 50.0175C84.0165 48.0823 76.3215 48.763 69.5291 51.9399C62.7366 55.1169 57.2816 60.5868 54.1231 67.3879L54.1195 67.3955L54.1162 67.4032C54.1029 67.4346 54.0918 67.4669 54.0829 67.4997L28.4089 120.098L28.4088 120.098L28.4047 120.107C27.0199 123.093 26.6191 126.442 27.2602 129.671C27.9013 132.9 29.5511 135.841 31.9717 138.072C34.3924 140.302 37.4589 141.707 40.7291 142.082C43.9992 142.458 47.3042 141.785 50.1675 140.161L50.1828 140.152L50.1975 140.143L86.3577 116.112C86.3582 116.112 86.3587 116.112 86.3591 116.111C86.7852 115.833 87.2655 115.648 87.7682 115.569C88.2716 115.489 88.786 115.518 89.2776 115.652L89.28 115.652L132.905 127.32C132.905 127.32 132.905 127.32 132.905 127.32C141.088 129.513 149.808 128.365 157.145 124.129C164.483 119.893 169.837 112.915 172.029 104.732C174.222 96.5478 173.074 87.8282 168.838 80.4908C164.602 73.1535 157.624 67.7995 149.441 65.6067L91.2616 50.0176ZM168.904 157.754L168.905 157.744L171.349 122.766L171.452 121.298L170.476 122.399C165.653 127.844 159.409 131.839 152.444 133.937C145.479 136.035 138.068 136.153 131.04 134.278L125.342 132.751L124.273 132.465L124.765 133.456L140.013 164.209L140.021 164.224L140.03 164.24C141.698 167.078 144.224 169.313 147.244 170.623C150.263 171.932 153.621 172.25 156.833 171.528C160.044 170.807 162.944 169.084 165.114 166.609C167.283 164.133 168.61 161.032 168.904 157.754ZM142.174 103.291L126.327 99.045C125.404 98.7978 124.617 98.1941 124.14 97.3669C123.662 96.5397 123.533 95.5566 123.78 94.634C124.027 93.7113 124.631 92.9247 125.458 92.4471C126.285 91.9695 127.268 91.8401 128.191 92.0873L144.038 96.3336C144.961 96.5808 145.748 97.1844 146.225 98.0116C146.703 98.8388 146.832 99.8219 146.585 100.745C146.338 101.667 145.734 102.454 144.907 102.931C144.08 103.409 143.097 103.538 142.174 103.291Z" fill="#E02FEF" stroke="black"/>
</g>
<defs>
<clipPath id="clip0_5_7">
<rect width="175" height="175" fill="white" transform="translate(45.293) rotate(15)"/>
</clipPath>
</defs>
</svg>
