<svg width="100%" height="100%" viewBox="0 0 165 137" fill="none" xmlns="http://www.w3.org/2000/svg">
<path d="M52.5459 81.1681L99.5305 98.2691L100.706 95.0389C102.808 89.2637 101.441 84.4139 96.6037 80.4896C91.7667 76.5652 87.0492 73.7685 82.4511 72.0994C77.8505 70.4249 72.4363 69.5362 66.2084 69.4332C59.9805 69.3303 55.8182 72.1652 53.7216 77.9379L52.5459 81.1681ZM84.5887 66.2263C87.8189 67.402 91.0041 67.2577 94.1443 65.7934C97.2845 64.3291 99.4398 61.9831 100.61 58.7554C101.786 55.5252 101.642 52.34 100.177 49.1998C98.7129 46.0596 96.3669 43.9043 93.1392 42.734C89.909 41.5583 86.7238 41.7026 83.5836 43.1669C80.4434 44.6312 78.2882 46.9772 77.1178 50.2049C75.9421 53.4351 76.0864 56.6203 77.5507 59.7604C79.015 62.9006 81.361 65.0559 84.5887 66.2263ZM32.2492 100.385C29.019 99.2094 26.6718 97.0515 25.2075 93.9113C23.7432 90.7711 23.6001 87.5886 24.7783 84.3637L50.4298 13.8868C51.6055 10.6566 53.7635 8.30936 56.9037 6.84506C60.0439 5.38076 63.2264 5.23771 66.4512 6.41589L136.928 32.0674C140.158 33.2431 142.506 35.401 143.97 38.5412C145.434 41.6814 145.577 44.864 144.399 48.0888L134.78 74.5177L160.013 62.751C161.215 62.1907 162.347 62.3521 163.409 63.2352C164.471 64.1184 164.754 65.2478 164.257 66.6235L145.874 117.132C145.375 118.502 144.432 119.186 143.046 119.182C141.659 119.179 140.689 118.575 140.134 117.371L128.367 92.1369L118.748 118.566C117.572 121.796 115.414 124.143 112.274 125.607C109.134 127.072 105.951 127.215 102.726 126.037L32.2492 100.385Z" fill="#E02FEF" stroke="black"/>
</svg>
