<svg width="100%" height="100%" viewBox="0 0 123 123" fill="none" xmlns="http://www.w3.org/2000/svg">
<g clip-path="url(#clip0_100_15)">
<path d="M12.0119 59.671C12.0119 59.671 9.27561 58.6053 11.419 55.6289L16.252 48.0948C16.252 48.0948 17.5561 45.6449 19.9477 46.8342L91.1279 76.5097L96.9718 98.3197C96.9718 98.3197 97.8609 101.752 93.4437 102.53L12.0119 59.671Z" fill="#2489CA"/>
<path d="M30.986 69.6537L19.5524 87.8055C19.5524 87.8055 18.3071 89.4078 20.4363 91.1042L29.2482 95.7516C29.2482 95.7516 31.4163 97.136 33.3345 94.3864L46.1194 77.6194L30.986 69.6537Z" fill="#1070B3"/>
<path d="M57.7116 62.6192L79.7879 33.4632L73.7941 11.8182C73.7941 11.8182 71.3346 7.40273 68.022 10.9316L40.1288 55.2682L57.7116 62.6192Z" fill="#0877B9"/>
<path d="M93.4531 102.558C95.5251 103.812 97.3395 102.733 97.3395 102.733L116.149 86.0054C118.414 83.3293 117.381 81.0376 117.381 81.0376L99.9326 15.9181C99.1657 13.0561 96.0233 12.8374 96.0233 12.8374L74.7103 8.63843C69.9004 7.15084 68.0231 10.9294 68.0231 10.9294C68.0231 10.9294 70.8099 7.45826 73.7952 11.816L96.8669 97.9208C97.0255 98.5126 97.0576 99.1279 96.9503 99.7182C96.7278 100.87 95.906 102.109 93.2175 102.403L93.4531 102.558Z" fill="#3C99D4"/>
</g>
<defs>
<clipPath id="clip0_100_15">
<rect width="100" height="100" fill="white" transform="translate(0 25.8828) rotate(-15)"/>
</clipPath>
</defs>
</svg>
