<svg width="100%" height="100%" viewBox="0 0 109 98" fill="none" xmlns="http://www.w3.org/2000/svg">
<path d="M37.58 18.8391L38.0618 18.5609C42.5207 16.0082 65.1595 3.15418 72.1821 1.27921C74.3078 0.717102 76.5438 0.722702 78.6666 1.29545C80.7894 1.86819 82.7246 2.98802 84.279 4.54303C86.0132 6.2842 87.9694 8.78487 89.8511 11.444L90.2302 11.9757L91.1618 13.3142L91.5301 13.8522C94.7382 18.5962 97.4565 23.2044 98.0463 24.2135L98.2807 24.6194C98.8815 25.6726 101.689 30.6479 104.274 36.0258L104.559 36.6191L104.835 37.2101C106.352 40.4624 107.727 43.7681 108.432 46.3775C109.004 48.501 109.007 50.7374 108.441 52.8625C107.876 54.9876 106.761 56.9268 105.21 58.4856C99.9061 63.7996 76.109 77.6976 72.8048 79.6125L72.0361 80.0563C70.3635 81.022 63.4269 84.9835 56.0298 88.9223L55.0908 89.4211L54.6074 89.6714L53.6599 90.1679L52.7124 90.6644C46.5508 93.8682 40.5824 96.7439 37.5338 97.5514C35.4091 98.1155 33.1736 98.1114 31.051 97.5396C28.9285 96.9677 26.9936 95.8481 25.44 94.293C23.5361 92.3828 21.3574 89.5343 19.2992 86.5945L18.9278 86.0511L18.5595 85.5132C16.1748 81.9998 13.9049 78.41 11.7531 74.7493L11.3687 74.0836C10.7077 72.9136 8.42913 68.867 6.15893 64.2598L5.87495 63.6805L5.72869 63.3896L5.44699 62.8017L4.75358 61.3257L4.48271 60.7315C3.12066 57.7723 1.92998 54.8224 1.29232 52.4554C0.72089 50.3319 0.717762 48.0955 1.28325 45.9704C1.84873 43.8452 2.96295 41.9061 4.51421 40.3473C6.74409 38.1217 12.2156 34.3853 18.0678 30.6457L18.9661 30.0765L19.8784 29.5065L20.3346 29.2215L21.2383 28.6492C26.2942 25.5092 31.3948 22.4417 36.5385 19.4476L37.5832 18.8445L37.58 18.8391ZM38.6744 41.3734L53.7307 67.4516L68.7075 41.4265L38.6744 41.3734Z" fill="#00BDDD"/>
<path d="M37.58 18.8391L38.0618 18.5609C42.5207 16.0082 65.1595 3.15418 72.1821 1.27921C74.3078 0.717102 76.5438 0.722702 78.6666 1.29545C80.7894 1.86819 82.7246 2.98802 84.279 4.54303C86.0132 6.2842 87.9694 8.78487 89.8511 11.444L90.2302 11.9757L91.1618 13.3142L91.5301 13.8522C94.7382 18.5962 97.4565 23.2044 98.0463 24.2135L98.2807 24.6194C98.8815 25.6726 101.689 30.6479 104.274 36.0258L104.559 36.6191L104.835 37.2101C106.352 40.4624 107.727 43.7681 108.432 46.3775C109.004 48.501 109.007 50.7374 108.441 52.8625C107.876 54.9876 106.761 56.9268 105.21 58.4856C99.9061 63.7996 76.109 77.6976 72.8048 79.6125L72.0361 80.0563C70.3635 81.022 63.4269 84.9835 56.0298 88.9223L55.0908 89.4211L54.6074 89.6714L53.6599 90.1679L52.7124 90.6644C46.5508 93.8682 40.5824 96.7439 37.5338 97.5514C35.4091 98.1155 33.1736 98.1114 31.051 97.5396C28.9285 96.9677 26.9936 95.8481 25.44 94.293C23.5361 92.3828 21.3574 89.5343 19.2992 86.5945L18.9278 86.0511L18.5595 85.5132C16.1748 81.9998 13.9049 78.41 11.7531 74.7493L11.3687 74.0836C10.7077 72.9136 8.42913 68.867 6.15893 64.2598L5.87495 63.6805L5.72869 63.3896L5.44699 62.8017L4.75358 61.3257L4.48271 60.7315C3.12066 57.7723 1.92998 54.8224 1.29232 52.4554C0.72089 50.3319 0.717762 48.0955 1.28325 45.9704C1.84873 43.8452 2.96295 41.9061 4.51421 40.3473C6.74409 38.1217 12.2156 34.3853 18.0678 30.6457L18.9661 30.0765L19.8784 29.5065L20.3346 29.2215L21.2383 28.6492C26.2942 25.5092 31.3948 22.4417 36.5385 19.4476L37.5832 18.8445L37.58 18.8391ZM38.6744 41.3734L53.7307 67.4516L68.7075 41.4265L38.6744 41.3734Z" stroke="black"/>
</svg>
